<?xml version="1.0" encoding="iso-8859-1"?>
<!-- Generator: Adobe Illustrator 21.0.0, SVG Export Plug-In . SVG Version: 6.00 Build 0)  -->
<svg version="1.1" id="Layer_1" xmlns="http://www.w3.org/2000/svg" xmlns:xlink="http://www.w3.org/1999/xlink" x="0px" y="0px"
	 viewBox="0 0 1000 1000" style="enable-background:new 0 0 1000 1000;" xml:space="preserve">
<path d="M972.828,526.718h-60.365l-23.03-23.029H678.117v4l209.659,0l19.03,19.03H653.062l-41.505-44.609l-14.946,8.269
	l-19.338-19.338l-29.198,30.842l-48.043-61.609l-1.577,2.022l-46.495,59.624l-29.233-30.879l-19.338,19.338l-14.946-8.269
	l-41.505,44.61H93.194l19.03-19.03h209.659v-4l-211.316,0l-23.029,23.029H27.172l33.011,33.011l29.011-29.011l258.456,0h81.852
	l-22.27,28.559h185.6l-22.27-28.559h81.788h4.434h254.022l29.011,29.011L972.828,526.718z M60.183,554.072l-23.354-23.354h46.709
	L60.183,554.072z M466.2,526.717h-28.506l8.069-10.348L466.2,526.717z M448.27,513.155l3.984-5.109l12.958,13.687L448.27,513.155z
	 M548.267,514.909l-13.477,6.824l12.992-13.724l3.995,5.123L548.267,514.909z M538.596,524.289l15.687-7.943l8.088,10.371H533.8
	L538.596,524.289z M577.352,476.774l15.539,15.539l-37.478,18.977l-4.85-6.219L577.352,476.774z M524.21,527.089l-0.327,0.166
	L502,499.193V449.3l43.294,55.519L524.21,527.089z M498,449.383v49.893l-21.837,28.003l-0.372-0.188l-21.049-22.234L498,449.383z
	 M422.648,476.774l26.824,28.334l-4.839,6.205l-37.523-19L422.648,476.774z M352.402,526.717l36.84-39.596l11.204,6.198
	l-0.068,0.068l2.259,1.144c0.054,0.028,39.49,19.996,39.49,19.996l-9.505,12.189H352.402z M434.575,530.717h38.907l-19.151,24.559
	h-38.907L434.575,530.717z M584.641,555.276h-38.907l-19.151-24.559h38.907L584.641,555.276z M567.443,526.717l-9.523-12.213
	l39.426-19.963c0.018-0.01,2.277-1.154,2.277-1.154l-0.068-0.068l11.204-6.199l36.84,39.596H567.443z M963.172,530.717
	l-23.355,23.354l-23.355-23.354H963.172z"/>
</svg>
